<?xml version="1.0" encoding="UTF-8"?>
<svg xmlns="http://www.w3.org/2000/svg" xmlns:xlink="http://www.w3.org/1999/xlink" viewBox="0 0 240 240" width="240px" height="240px">
<g id="surface144360119">
<path style=" stroke:none;fill-rule:nonzero;fill:rgb(90.588236%,29.803923%,23.529412%);fill-opacity:1;" d="M 36.800781 5.601562 C 34.140625 5.601562 31.476562 6.613281 29.445312 8.648438 L 8.648438 29.445312 C 4.582031 33.511719 4.582031 40.097656 8.648438 44.152344 L 84.492188 120 L 8.648438 195.847656 C 4.582031 199.914062 4.582031 206.496094 8.648438 210.554688 L 29.445312 231.351562 C 33.511719 235.417969 40.097656 235.417969 44.152344 231.351562 L 120 155.507812 L 195.847656 231.351562 C 199.902344 235.417969 206.496094 235.417969 210.554688 231.351562 L 231.351562 210.554688 C 235.417969 206.488281 235.417969 199.902344 231.351562 195.847656 L 155.507812 120 L 231.351562 44.152344 C 235.417969 40.097656 235.417969 33.503906 231.351562 29.445312 L 210.554688 8.648438 C 206.488281 4.582031 199.902344 4.582031 195.847656 8.648438 L 120 84.492188 L 44.152344 8.648438 C 42.121094 6.613281 39.460938 5.601562 36.800781 5.601562 Z M 36.800781 5.601562 "/>
</g>
</svg>
