<?xml version="1.0"?>
<svg xmlns="http://www.w3.org/2000/svg" xmlns:xlink="http://www.w3.org/1999/xlink" xmlns:svgjs="http://svgjs.com/svgjs" version="1.1" width="512" height="512" x="0" y="0" viewBox="0 0 512.316 512.316" style="enable-background:new 0 0 512 512" xml:space="preserve" class=""><g transform="matrix(1,0,0,1,-35,0)"><g xmlns="http://www.w3.org/2000/svg"><circle cx="198.932" cy="42.167" r="42.167" fill="#303030" data-original="#000000" style="" class=""/><path d="m415.091 84.073-46.454-73.471c-4.724-7.472-15.623-7.472-20.347 0l-46.454 73.471c-5.067 8.014.691 18.469 10.174 18.469h36.499v50.044l-46.065 26.135v-32.938c0-.034 0-.068 0-.102-.132-26.416-22.068-47.906-48.898-47.906-22.903 0-85.792 0-109.226 0-26.873 0-48.845 21.491-48.977 47.906v.102 149.471c0 11.237 9.109 20.346 20.345 20.346s20.345-9.109 20.345-20.346v-149.405c.044-3.869 4.318-7.384 8.622-7.384v349.436c0 13.484 11.108 24.415 24.592 24.415s24.415-10.931 24.415-24.415v-195.149h10.541v195.149c0 13.484 10.931 24.415 24.415 24.415s24.519-10.931 24.519-24.415c0-.154 0-349.328 0-349.436 4.263 0 8.572 3.514 8.617 7.382v67.808c0 7.242 3.849 13.937 10.106 17.581 6.221 3.624 13.945 3.708 20.278.115l56.371-31.982v34.369c0 5.498 4.457 9.955 9.955 9.955s9.955-4.457 9.955-9.955v-45.665l7.915-4.491c9.773-5.545 13.202-17.962 7.657-27.736-3.366-5.933-9.269-9.508-15.572-10.176v-43.13h36.499c9.482.001 15.24-10.453 10.173-18.467zm-55.451-51.58c2.823 0 5.213 1.593 5.213 4.416 0 8.615-1.014 20.995-1.014 29.61 0 2.244-2.461 3.185-4.199 3.185-2.317 0-4.272-.941-4.272-3.185 0-8.615-1.013-20.995-1.013-29.61 0-2.823 2.317-4.416 5.285-4.416zm.072 42.206c2.969 0 5.502 2.534 5.502 5.575 0 2.968-2.533 5.574-5.502 5.574-3.185 0-5.574-2.606-5.574-5.574-.001-3.041 2.389-5.575 5.574-5.575z" fill="#303030" data-original="#000000" style="" class=""/></g></g></svg>
